<svg xmlns="http://www.w3.org/2000/svg" width="140" height="65.8" viewBox="0 0 140 65.8"><g style="isolation:isolate"><path d="M49.35 19.598h-4.06V3.569h-5.88v-3.5h15.819v3.5h-5.88zm11.409-8.75v8.75h-4.058V.07h4.058v7.419h7.63V.07h4.061v19.528h-4.061v-8.75zm27.442-7.349H77.976V7.63h9.03v3.43h-9.03v5.108h10.221v3.43h-14V.07h14zM12.11 22.608h3.781v19.461H11.83L3.85 28.208h-.07v13.861H-.001V22.608h4.27l7.77 13.511h.07zm14.98-.559c2.59 0 9.379 1.12 9.379 10.219S29.68 42.487 27.09 42.487s-9.38-1.12-9.38-10.219 6.789-10.219 9.38-10.219m0 17.079c2.171 0 5.252-1.329 5.252-6.79s-3.08-6.79-5.252-6.79-5.32 1.33-5.32 6.79 3.151 6.79 5.32 6.79m38.081 2.941h-4.06V26.038H55.16v-3.43h15.891v3.43h-5.879zm11.409-8.75v8.75h-4.061V22.608h4.057v7.351h7.56v-7.351h4.06v19.461h-4.06v-8.75zM38.15 22.608h9.87c5.181 0 6.159 3.851 6.159 5.53a4.631 4.631 0 0 1-3.008 4.62c1.608.7 2.449 1.331 2.449 4.971 0 2.871 0 3.569.841 3.851v.489h-4.48a12.5 12.5 0 0 1-.422-3.921c0-2.659-.14-3.709-3.15-3.709h-4.2v7.63h-3.99zm8.75 8.541c2.1 0 3.15-.771 3.15-2.659 0-1.05-.491-2.521-2.871-2.521h-5.038v5.181zm-18.2 34.02h-4.13V45.151h14.21v3.569H28.7v4.48h8.821v3.57H28.7zm11.97 0h-4.41l7.141-20.019h4.829l7.071 20.019h-4.552l-1.259-4.13h-7.491zm2.45-7.56h5.11l-2.449-7.91h-.07zM68.04 51.8a4.065 4.065 0 0 0-4.41-3.43c-2.031 0-4.969 1.33-4.969 7 0 3.57 1.4 6.79 4.969 6.79a4.261 4.261 0 0 0 4.41-3.779h4.2c-.84 4.34-3.64 7.35-8.68 7.35-5.32 0-9.1-3.571-9.1-10.5 0-7 4.059-10.571 9.169-10.571 5.95 0 8.4 4.13 8.61 7.071h-4.2zm20.231-3.08h-10.5v4.2h9.308v3.5h-9.308v5.18h10.5v3.57H73.919V45.151h14.352zm-71.259 6.3a5.348 5.348 0 0 1 5.389 5.39 5.349 5.349 0 0 1-5.389 5.39 5.408 5.408 0 0 1-5.461-5.39 5.407 5.407 0 0 1 5.461-5.39m0 10.01a4.4 4.4 0 0 0 4.41-4.62 4.424 4.424 0 0 0-4.41-4.55 4.437 4.437 0 0 0-4.48 4.55 4.5 4.5 0 0 0 4.48 4.62m-2.1-7.77h2.451c1.469 0 2.239.559 2.239 1.819 0 1.12-.7 1.611-1.681 1.751l1.821 2.8h-1.05l-1.749-2.731h-1.05v2.731h-.981zm.981 2.8h1.05c.838 0 1.679-.07 1.679-1.05 0-.839-.7-.978-1.4-.978h-1.329zm85.679 3.851V53.62a8.425 8.425 0 0 0-8.4-8.4h-.911v19.95h9.311zm38.43 0V46.83A46.872 46.872 0 0 0 93.172.001h-.911v19.6h1.33a28.277 28.277 0 0 1 27.791 27.791v17.78h18.62z"/><path d="M118.369 64.612V47.671a25.292 25.292 0 0 0-24.219-25.06h-1.959v19.53h.91A11.336 11.336 0 0 1 104.44 53.48v11.691h13.93v-.559z"/></g></svg>